/* XPM */
static char * playback_shuttle_3_xpm[] = {
"19 19 3 1",
" 	c None",
".	c #000000",
"+	c #A0FFC8",
"                   ",
"       .....       ",
"     ..+++++..     ",
"    .+++++++++.    ",
"   .+++++++++++.   ",
"  .+++++++++++++.  ",
"  .+++++++++++++.  ",
" .+++++++++++++++. ",
" .+++++++++++++++. ",
" .++++++++...++++. ",
" .+++++++.....+++. ",
" .+++++++.....+++. ",
"  .++++++.....++.  ",
"  .+++++++...+++.  ",
"   .+++++++++++.   ",
"    .+++++++++.    ",
"     ..+++++..     ",
"       .....       ",
"                   "};
