/* XPM */
static char * playback_loop_once_xpm[] = {
"19 11 2 1",
"   c None",
".  c #000000",
"                   ",
"            ..     ",
"            ...    ",
"            ....   ",
" ................  ",
" ................. ",
" ................  ",
"            ....   ",
"            ...    ",
"            ..     ",
"                   "};
