/* XPM */
static char * playback_loop_ping_pong_xpm[] = {
"19 11 2 1",
"   c None",
".  c #000000",
"                   ",
"     ..     ..     ",
"    ...     ...    ",
"   ....     ....   ",
"  ...............  ",
" ................. ",
"  ...............  ",
"   ....     ....   ",
"    ...     ...    ",
"     ..     ..     ",
"                   "};
