/* XPM */
static char * shuttle_7_xpm[] = {
"19 19 3 1",
" 	c None",
".	c #000000",
"+	c #E6E6E6",
"                   ",
"       .....       ",
"     ..+++++..     ",
"    .+++++++++.    ",
"   .+++++++++++.   ",
"  .+++...+++++++.  ",
"  .++.....++++++.  ",
" .+++.....+++++++. ",
" .+++.....+++++++. ",
" .++++...++++++++. ",
" .+++++++++++++++. ",
" .+++++++++++++++. ",
"  .+++++++++++++.  ",
"  .+++++++++++++.  ",
"   .+++++++++++.   ",
"    .+++++++++.    ",
"     ..+++++..     ",
"       .....       ",
"                   "};
