/* XPM */
static char * tool_radio_xpm[] = {
"9 9 2 1",
" 	c None",
".	c #FFFFFF",
"         ",
"   ...   ",
"  .....  ",
" ....... ",
" ....... ",
" ....... ",
"  .....  ",
"   ...   ",
"         "};
