/* XPM */
static char * file_close_xpm[] = {
"19 19 5 1",
" 	c None",
".	c #000000",
"+	c #FFFFFF",
"@	c #B3B3B3",
"#	c #FF8787",
"        ...........",
"        .+++++++++.",
"        .+++++++++.",
"        .+@@@@@@@+.",
"        .+++++++++.",
"        .+@@@@@@@+.",
"        .+++++++++.",
"        .+@@@@@@@+.",
"  ..   ..+++++++++.",
" .##. .##.@@@@@@@+.",
".####.####.+++++++.",
".#########.@@@@@@+.",
" .#######.++++++++.",
"  .#####.+++++++++.",
" .#######..........",
".#########.        ",
".####.####.        ",
" .##. .##.         ",
"  ..   ..          "};
