/* XPM */
static char * playback_stop_xpm[] = {
"19 19 4 1",
" 	c None",
".	c #000000",
"+	c #040404",
"@	c #A0FFC8",
"                   ",
"                   ",
"  .......+.......  ",
"  .@@@@@@@@@@@@@.  ",
"  .@@@@@@@@@@@@@.  ",
"  .@@@@@@@@@@@@@.  ",
"  .@@@@@@@@@@@@@.  ",
"  .@@@@@@@@@@@@@.  ",
"  .@@@@@@@@@@@@@.  ",
"  .@@@@@@@@@@@@@.  ",
"  .@@@@@@@@@@@@@.  ",
"  .@@@@@@@@@@@@@.  ",
"  .@@@@@@@@@@@@@.  ",
"  .@@@@@@@@@@@@@.  ",
"  .@@@@@@@@@@@@@.  ",
"  .@@@@@@@@@@@@@.  ",
"  .......+.......  ",
"                   ",
"                   "};
