/* XPM */
static char * playback_in_out_xpm[] = {
"11 11 2 1",
"   c None",
".  c #000000",
"           ",
" ...   ... ",
" ...   ... ",
" ...   ... ",
" ...   ... ",
" ...   ... ",
" ...   ... ",
" ...   ... ",
" ...   ... ",
" ...   ... ",
"           "};
