/* XPM */
static char * tool_end_xpm[] = {
"9 9 2 1",
" 	c None",
".	c #000000",
"..    ...",
"...   ...",
"....  ...",
"..... ...",
".........",
"..... ...",
"....  ...",
"...   ...",
"..    ..."};
