/* XPM */
static char * tool_check_xpm[] = {
"9 9 2 1",
" 	c None",
".	c #FFFFFF",
"         ",
"        .",
"       ..",
"      ...",
" .   ... ",
" .. ...  ",
" .....   ",
"  ...    ",
"   .     "};
