/* XPM */
static char * projector32x32_xpm[] = {
"32 32 152 2",
"    c None",
".   c #FFFFFF",
"+   c #E0E0E0",
"@   c #7E7E7E",
"#   c #505050",
"$   c #5F5F5F",
"%   c #565656",
"&   c #ACACAC",
"*   c #8F8F8F",
"=   c #383838",
"-   c #535353",
";   c #4D4D4D",
">   c #363636",
",   c #4C4C4C",
"'   c #4B4B4B",
")   c #EAEAEA",
"!   c #CACACA",
"~   c #636363",
"{   c #545454",
"]   c #606060",
"^   c #A7A7A7",
"/   c #9F9F9F",
"(   c #414141",
"_   c #525252",
":   c #242424",
"<   c #040404",
"[   c #010101",
"}   c #323232",
"|   c #353535",
"1   c #EFEFEF",
"2   c #C8C8C8",
"3   c #3B3B3B",
"4   c #373737",
"5   c #101010",
"6   c #484848",
"7   c #2B2B2B",
"8   c #7A7A7A",
"9   c #E3E3E3",
"0   c #393939",
"a   c #424242",
"b   c #000000",
"c   c #212121",
"d   c #4F4F4F",
"e   c #1B1B1B",
"f   c #2C2C2C",
"g   c #8D8D8D",
"h   c #F1F1F1",
"i   c #1F1F1F",
"j   c #1D1D1D",
"k   c #4A4A4A",
"l   c #F7F7F7",
"m   c #515151",
"n   c #555555",
"o   c #444444",
"p   c #1E1E1E",
"q   c #131313",
"r   c #707070",
"s   c #989898",
"t   c #BCBCBC",
"u   c #F4F4F4",
"v   c #303030",
"w   c #575757",
"x   c #333333",
"y   c #3E3E3E",
"z   c #454545",
"A   c #3C3C3C",
"B   c #676767",
"C   c #3D3D3D",
"D   c #222222",
"E   c #C2C2C2",
"F   c #DADADA",
"G   c #434343",
"H   c #474747",
"I   c #0A0A0A",
"J   c #313131",
"K   c #464646",
"L   c #4E4E4E",
"M   c #2D2D2D",
"N   c #D1D1D1",
"O   c #3F3F3F",
"P   c #262626",
"Q   c #494949",
"R   c #343434",
"S   c #E4E4E4",
"T   c #B8B8B8",
"U   c #060606",
"V   c #2E2E2E",
"W   c #F8F8F8",
"X   c #656565",
"Y   c #9C9C9C",
"Z   c #3A3A3A",
"`   c #191919",
" .  c #282828",
"..  c #050505",
"+.  c #030303",
"@.  c #2F2F2F",
"#.  c #C5C5C5",
"$.  c #151515",
"%.  c #121212",
"&.  c #0F0F0F",
"*.  c #141414",
"=.  c #BFBFBF",
"-.  c #FCFCFC",
";.  c #1C1C1C",
">.  c #737373",
",.  c #777777",
"'.  c #ECECEC",
").  c #696969",
"!.  c #161616",
"~.  c #626262",
"{.  c #070707",
"].  c #0E0E0E",
"^.  c #C3C3C3",
"/.  c #111111",
"(.  c #0C0C0C",
"_.  c #171717",
":.  c #686868",
"<.  c #080808",
"[.  c #F5F5F5",
"}.  c #959595",
"|.  c #AAAAAA",
"1.  c #6E6E6E",
"2.  c #717171",
"3.  c #0B0B0B",
"4.  c #090909",
"5.  c #181818",
"6.  c #C9C9C9",
"7.  c #404040",
"8.  c #616161",
"9.  c #6B6B6B",
"0.  c #1A1A1A",
"a.  c #020202",
"b.  c #757575",
"c.  c #898989",
"d.  c #232323",
"e.  c #A6A6A6",
"f.  c #292929",
"g.  c #252525",
"h.  c #6A6A6A",
"i.  c #C7C7C7",
"j.  c #202020",
"k.  c #FAFAFA",
"l.  c #E8E8E8",
"m.  c #979797",
"n.  c #858585",
"o.  c #828282",
"p.  c #E9E9E9",
"q.  c #DDDDDD",
"r.  c #7F7F7F",
"s.  c #D6D6D6",
"t.  c #D4D4D4",
"u.  c #DFDFDF",
". . . . . . . . . . . . . . . . . . . . . . . . . . . . . . . . ",
". . . . . . . + @ # $ % & . . . . . . . . . . . . . . . . . . . ",
". . . . . . * = - ; > , ' - ) . . . . . . . . ! ~ { ] ^ . . . . ",
". . . . . / ( _ : < [ , } | % 1 . . . . . . 2 3 4 5 6 7 8 . . . ",
". . . . 9 0 % a [ b c d e b f g . . . . . h | # i j k [ | l . . ",
". . . . # # m n o 7 k d p b q r . . . . . s o c d # # a 6 t . . ",
". . . u v w j x - m y a a z ' A h . . . . B a b ( 0 C y D E . . ",
". . . F G H b I d J K L M ; 7 x N . . . . d O P # a Q R c S . . ",
". . . T H y b U V e m H Q | b } W . . . . ~ L 3 } # = Q X . . . ",
". . . Y k Z [ 0 d p ` K , p b 3 . . . . . 8 =  ...z +.@.! . . . ",
". . . #.' Q a n - A $.L L y %.6 . . . . W &.*.R O ( M =.. . . . ",
". . . -.O w z 7 ;.' m ( A ; k 0 >.,.'.. ).!. .v 7 i } . . . . . ",
". . . . Z w D b b @.d U b  .6 J : 5 7 ~. .O | {.].} ^ . . . . . ",
". . . . ^.; d %.b f > b /.z O R o (.A z 4 G _.5 ].:.. . . . . . ",
". . . . . E 0 m > ' ( G | ].k x V 6 K > <.} J 7 j [.. . . . . . ",
". . . . . . }.: - _ A *.b _.G K = @.*.[ /.R  .].|.. . . . . . . ",
". . . . . . 1._ - p b b < o = ;.< ..i Z o G : R . . . . . . . . ",
". . . . . . 2.k - i b [ 3.4.b {.e 5.K z o G v 6.. . . . . . . . ",
". . . . . . ~.z K } b b b b <.( p [ 7.z J @.> . . . . . . . . . ",
". . . . . . 8.x O z b _.4.b 0 6 : b <.7 _.x ' . . . . . . . . . ",
". . . . . . 9._ | _ +.b b b 0.H K b a.D O G A . . . . . . . . . ",
". . . . . . b.# @._ /.b b b } Q G {.= z A C O . . . . . . . . . ",
". . . . . . c._ Q _ i b b b 4.= d.R K R M 7.1.. . . . . . . . . ",
". . . . . . e., , _ 7 b b b b j U K f.g.M G h.. . . . . . . . . ",
". . . . . . i.z - _ M b [ [ b 0...;.< +.j.} } k.. . . . . . . . ",
". . . . . . l.( ; _ f b b b b b b b %.P ` y F . . . . . . . . . ",
". . . . . . . m.m _  .b b b b b *.7 _.(.n.. . . . . . . . . . . ",
". . . . . . . . / @.+.b b b j.> e {.:.l . . . . . . . . . . . . ",
". . . . . . . . . o.e < b %.j.< L p.. . . . . . . . . . . . . . ",
". . . . . . . . . . q.r.j.` 0 s.. . . . . . . . . . . . . . . . ",
". . . . . . . . . . . . t.u.. . . . . . . . . . . . . . . . . . ",
". . . . . . . . . . . . . . . . . . . . . . . . . . . . . . . . "};
